<?xml version="1.0" encoding="UTF-8" standalone="no"?>
<!-- Created with Inkscape (http://www.inkscape.org/) -->
<svg xmlns:dc="http://purl.org/dc/elements/1.1/" xmlns:cc="http://creativecommons.org/ns#" xmlns:rdf="http://www.w3.org/1999/02/22-rdf-syntax-ns#" xmlns:svg="http://www.w3.org/2000/svg" xmlns="http://www.w3.org/2000/svg" xmlns:sodipodi="http://sodipodi.sourceforge.net/DTD/sodipodi-0.dtd" xmlns:inkscape="http://www.inkscape.org/namespaces/inkscape" width="196.86369" height="214.24428" id="svg3829" version="1.1" inkscape:version="0.48.1 r9760" sodipodi:docname="piyo.svg" inkscape:export-filename="piyo.png" inkscape:export-xdpi="90" inkscape:export-ydpi="90">
  <defs id="defs3831">
    <filter inkscape:collect="always" id="filter3837" x="-0.22313176" width="1.4462636" y="-1.3975095" height="3.7950189" color-interpolation-filters="sRGB">
      <feGaussianBlur inkscape:collect="always" stdDeviation="5.5879703" id="feGaussianBlur3839"/>
    </filter>
  </defs>
  <sodipodi:namedview id="base" pagecolor="#ffffff" bordercolor="#666666" borderopacity="1.0" inkscape:pageopacity="0.0" inkscape:pageshadow="2" inkscape:zoom="1.7499261" inkscape:cx="99.691981" inkscape:cy="76.294709" inkscape:document-units="px" inkscape:current-layer="g3795" showgrid="false" inkscape:window-width="1280" inkscape:window-height="977" inkscape:window-x="0" inkscape:window-y="24" inkscape:window-maximized="1" fit-margin-top="0" fit-margin-left="0" fit-margin-right="0" fit-margin-bottom="0" inkscape:snap-global="false" showguides="true" inkscape:guide-bbox="true"/>
  <g inkscape:label="Layer 1" inkscape:groupmode="layer" id="layer1" transform="translate(-514.52675,-435.625)">
    <g id="g3795" transform="translate(0.1,0)">
      <path sodipodi:type="arc" style="opacity:0.7;fill:#826d45;fill-opacity:1;stroke:none;filter:url(#filter3837)" id="path3812" sodipodi:cx="86.620583" sodipodi:cy="197.64594" sodipodi:rx="30.052038" sodipodi:ry="4.7982244" d="m 116.67262,197.64594 c 0,2.64998 -13.45476,4.79822 -30.052037,4.79822 -16.597283,0 -30.052039,-2.14824 -30.052039,-4.79822 0,-2.64999 13.454756,-4.79823 30.052039,-4.79823 16.597277,0 30.052037,2.14824 30.052037,4.79823 z" transform="matrix(2.2647187,0,0,1.2881904,416.68734,371.80657)"/>
      <path sodipodi:type="arc" style="color:#000000;fill:#feeb81;fill-opacity:1;stroke:#8f7341;stroke-width:3.43289828;stroke-miterlimit:4;stroke-opacity:1;stroke-dasharray:none;marker:none;visibility:visible;display:inline;overflow:visible;enable-background:accumulate" id="path3810" sodipodi:cx="128.81526" sodipodi:cy="121.35641" sodipodi:rx="31.820436" sodipodi:ry="44.688824" d="m 160.6357,121.35641 c 0,24.68095 -14.2465,44.68882 -31.82044,44.68882 -17.57394,0 -31.820435,-20.00787 -31.820435,-44.68882 0,-24.680959 14.246495,-44.688827 31.820435,-44.688827 17.57394,0 31.82044,20.007868 31.82044,44.688827 z" transform="matrix(0.86956829,-0.58615736,0.58621038,0.86952447,385.69541,522.92281)"/>
      <path inkscape:connector-curvature="0" id="path3827" d="m 543.66923,515.59457 c -7.06727,4.7639 -10.85254,13.12965 -11.10642,23.09745 -0.25387,9.9678 3.09727,21.41942 10.13543,31.85911 7.03817,10.43969 16.39742,17.84138 25.73332,21.34492 9.33589,3.50353 18.51121,3.13283 25.57849,-1.63107 7.06728,-4.7639 10.85254,-13.12965 11.10642,-23.09745 0.25388,-9.96779 -3.09727,-21.41942 -10.13543,-31.85911 -7.03817,-10.43969 -16.39742,-17.84138 -25.73332,-21.34492 -9.33589,-3.50354 -18.51121,-3.13283 -25.57849,1.63107 z" style="color:#000000;fill:#ffffff;fill-opacity:0.78431373;stroke:none;stroke-width:3.43289828;marker:none;visibility:visible;display:inline;overflow:visible;enable-background:accumulate"/>
      <path id="rect3785" d="m 601.5,437.42468 c -30.46776,0 -55.15625,22.27662 -55.15625,49.75 0,0.89009 0.0112,1.77787 0.0625,2.65625 l 0,67.9375 c 0.0772,0.0513 0.14214,0.10505 0.21875,0.15625 -0.0115,0.40652 -0.0312,0.81016 -0.0312,1.21875 0,18.9516 12.42097,35.72276 31.53125,46.125 1.29051,0.65027 2.58449,1.26508 3.875,1.84375 l 0,10.65625 c 0,5.33037 4.29463,9.625 9.625,9.625 5.33037,0 9.625,-4.29463 9.625,-9.625 l 0,-4.21875 c 2.54359,0.61626 5.08141,1.19718 7.625,1.6875 3.10617,0.5112 4.2964,0.6204 7.53125,0.84375 1.89977,0.10736 3.75438,0.15421 5.59375,0.15625 l 0,1.53125 c 0,5.33037 4.29463,9.625 9.625,9.625 5.33037,0 9.625,-4.29463 9.625,-9.625 l 0,-3.1875 c 1.95087,-0.31253 3.89368,-0.63088 5.8125,-1 31.04739,-7.36668 53.53125,-28.92632 53.53125,-54.4375 0,-15.84992 -8.69614,-30.17134 -22.71875,-40.53125 -4.62229,-3.19484 -9.14819,-6.24502 -14.3125,-8.6875 -5.22908,-2.47359 -7.38633,-4.22403 -7.09375,-16.28125 l 0.1875,-6.46875 c 0,-27.47338 -24.68849,-49.75 -55.15625,-49.75 z" style="color:#000000;fill:#feeb81;fill-opacity:1;fill-rule:evenodd;stroke:#8f7341;stroke-width:3.5999999;stroke-linecap:round;stroke-linejoin:round;stroke-miterlimit:4;stroke-opacity:1;stroke-dasharray:none;marker:none;visibility:visible;display:inline;overflow:visible;enable-background:accumulate" inkscape:connector-curvature="0"/>
      <path transform="matrix(0.86956829,-0.58615736,0.58621038,0.86952447,482.61105,522.41666)" d="m 160.6357,121.35641 c 0,24.68095 -14.2465,44.68882 -31.82044,44.68882 -17.57394,0 -31.820435,-20.00787 -31.820435,-44.68882 0,-24.680959 14.246495,-44.688827 31.820435,-44.688827 17.57394,0 31.82044,20.007868 31.82044,44.688827 z" sodipodi:ry="44.688824" sodipodi:rx="31.820436" sodipodi:cy="121.35641" sodipodi:cx="128.81526" id="path3772" style="color:#000000;fill:#feeb81;fill-opacity:1;stroke:#8f7341;stroke-width:3.43289828;stroke-miterlimit:4;stroke-opacity:1;stroke-dasharray:none;marker:none;visibility:visible;display:inline;overflow:visible;enable-background:accumulate" sodipodi:type="arc"/>
      <path style="fill:#fbb67b;fill-opacity:1;stroke:#8f7341;stroke-width:3.0999999;stroke-linecap:round;stroke-linejoin:round;stroke-miterlimit:4;stroke-opacity:1;stroke-dasharray:none" d="m 614.25292,501.01952 c -0.0885,5.87063 -9.60122,7.44561 -20.34,7.29521 -10.73878,-0.14998 -18.89001,-2.72686 -18.80113,-8.59749 0.0885,-5.87064 7.25115,-9.98102 17.98994,-9.83062 10.73878,0.14998 21.24006,5.26226 21.15119,11.1329 z" id="path3802" inkscape:connector-curvature="0" sodipodi:nodetypes="sssss"/>
      <path style="fill:none;stroke:#8f7341;stroke-width:3.5;stroke-linecap:round;stroke-linejoin:round;stroke-miterlimit:4;stroke-opacity:1;stroke-dasharray:none" d="m 575.99904,499.42206 c 7.19682,0.69313 18.54718,0.6506 37.6063,1.68054" id="path3804" inkscape:connector-curvature="0" sodipodi:nodetypes="cc"/>
      <path id="path3820" d="m 601.5,439.11218 c -29.64271,0 -53.46875,21.60316 -53.46875,48.0625 0,0.87589 0.0142,1.73607 0.0625,2.5625 a 1.6928091,1.6928091 0 0 1 0,0.0937 l 0,67.25 a 1.6928091,1.6928091 0 0 1 0.21875,0.90625 c -0.0122,0.42962 -0.0312,0.8022 -0.0312,1.15625 0,15.17951 8.27088,28.99141 21.875,39.09375 8.26924,6.14069 18.51795,10.88514 29.96875,13.65625 -24.6632,-9.52979 -41.53125,-28.66848 -41.53125,-50.75 0,-0.40859 0.0197,-0.81223 0.0312,-1.21875 -0.0766,-0.0512 -0.14155,-0.10495 -0.21875,-0.15625 l 0,-67.9375 c -0.0513,-0.87838 -0.0625,-1.76616 -0.0625,-2.65625 0,-26.10329 22.30026,-47.49181 50.65625,-49.5625 -2.45366,-0.3094 -4.94867,-0.5 -7.5,-0.5 z" style="color:#000000;fill:#ffffff;fill-opacity:0.78431373;fill-rule:nonzero;stroke:none;stroke-width:3.60000014;marker:none;visibility:visible;display:inline;overflow:visible;enable-background:accumulate" inkscape:connector-curvature="0"/>
      <path transform="matrix(0.77207772,0,0,0.77207772,352.30094,445.21389)" d="m 291.96362,40.534332 c 0,1.609476 -1.30474,2.914215 -2.91421,2.914215 -1.60948,0 -2.91422,-1.304739 -2.91422,-2.914215 0,-1.609476 1.30474,-2.914214 2.91422,-2.914214 1.60947,0 2.91421,1.304738 2.91421,2.914214 z" sodipodi:ry="2.9142144" sodipodi:rx="2.9142144" sodipodi:cy="40.534332" sodipodi:cx="289.04941" id="path3833" style="color:#000000;fill:#8f7341;fill-opacity:1;fill-rule:nonzero;stroke:none;stroke-width:3.5999999;marker:none;visibility:visible;display:inline;overflow:visible;enable-background:accumulate" sodipodi:type="arc"/>
      <path sodipodi:type="arc" style="color:#000000;fill:#8f7341;fill-opacity:1;fill-rule:nonzero;stroke:none;stroke-width:3.5999999;marker:none;visibility:visible;display:inline;overflow:visible;enable-background:accumulate" id="path3835" sodipodi:cx="289.04941" sodipodi:cy="40.534332" sodipodi:rx="2.9142144" sodipodi:ry="2.9142144" d="m 291.96362,40.534332 c 0,1.609476 -1.30474,2.914215 -2.91421,2.914215 -1.60948,0 -2.91422,-1.304739 -2.91422,-2.914215 0,-1.609476 1.30474,-2.914214 2.91422,-2.914214 1.60947,0 2.91421,1.304738 2.91421,2.914214 z" transform="matrix(0.77207772,0,0,0.77207772,386.30094,445.21389)"/>
      <path id="path3789" d="m 653.90625,511.17468 c -4.96273,-0.008 -9.58715,1.25781 -13.5625,3.9375 -7.06727,4.7639 -10.87112,13.1572 -11.125,23.125 -0.25387,9.9678 3.11809,21.40406 10.15625,31.84375 5.41602,8.03357 12.18463,14.26887 19.28125,18.3125 -4.87159,-3.75668 -9.41982,-8.58485 -13.28125,-14.3125 -7.03816,-10.43969 -10.41012,-21.87595 -10.15625,-31.84375 0.25388,-9.9678 4.05773,-18.3611 11.125,-23.125 7.06728,-4.7639 16.22661,-5.12854 25.5625,-1.625 2.10239,0.78898 4.20326,1.79423 6.28125,2.96875 -3.96523,-3.03722 -8.1173,-5.40612 -12.28125,-6.96875 -4.08445,-1.5328 -8.1401,-2.30627 -12,-2.3125 z" style="color:#000000;fill:#ffffff;fill-opacity:0.78431373;stroke:none;stroke-width:3.43289828;marker:none;visibility:visible;display:inline;overflow:visible;enable-background:accumulate" inkscape:connector-curvature="0"/>
    </g>
  </g>
  <metadata>
    <rdf:RDF>
      <cc:Work>
        <dc:format>image/svg+xml</dc:format>
        <dc:type rdf:resource="http://purl.org/dc/dcmitype/StillImage"/>
        <cc:license rdf:resource="http://creativecommons.org/licenses/publicdomain/"/>
        <dc:publisher>
          <cc:Agent rdf:about="http://openclipart.org/">
            <dc:title>Open Clip Art Library</dc:title>
          </cc:Agent>
        </dc:publisher>
        <dc:title>piyo</dc:title>
        <dc:date>2011-07-23T06:50:20</dc:date>
        <dc:description>chicken</dc:description>
        <dc:source>http://openclipart.org/detail/151279/piyo-by-lemonade_jo</dc:source>
        <dc:creator>
          <cc:Agent>
            <dc:title>Lemonade_Jo</dc:title>
          </cc:Agent>
        </dc:creator>
        <dc:subject>
          <rdf:Bag>
            <rdf:li>bird</rdf:li>
            <rdf:li>chicken</rdf:li>
            <rdf:li>clip art</rdf:li>
            <rdf:li>clipart</rdf:li>
            <rdf:li>cock</rdf:li>
            <rdf:li>piyo</rdf:li>
          </rdf:Bag>
        </dc:subject>
      </cc:Work>
      <cc:License rdf:about="http://creativecommons.org/licenses/publicdomain/">
        <cc:permits rdf:resource="http://creativecommons.org/ns#Reproduction"/>
        <cc:permits rdf:resource="http://creativecommons.org/ns#Distribution"/>
        <cc:permits rdf:resource="http://creativecommons.org/ns#DerivativeWorks"/>
      </cc:License>
    </rdf:RDF>
  </metadata>
</svg>
